inDegrees=yes
name=ik_Xsens_quaternion
DataType=double
version=3
OpenSimVersion=4.4-2022-07-23-0e9fedc
endheader
time	pelvis_tilt	pelvis_list	pelvis_rotation	pelvis_tx	pelvis_ty	pelvis_tz	hip_flexion_r	hip_adduction_r	hip_rotation_r	knee_angle_r	knee_angle_r_beta	ankle_angle_r	subtalar_angle_r	mtp_angle_r	hip_flexion_l	hip_adduction_l	hip_rotation_l	knee_angle_l	knee_angle_l_beta	ankle_angle_l	subtalar_angle_l	mtp_angle_l	lumbar_extension	lumbar_bending	lumbar_rotation	arm_flex_r	arm_add_r	arm_rot_r	elbow_flex_r	pro_sup_r	wrist_flex_r	wrist_dev_r	arm_flex_l	arm_add_l	arm_rot_l	elbow_flex_l	pro_sup_l	wrist_flex_l	wrist_dev_l
0	3.010818294149084e-44	1.683771628589691e-37	-2.509015245124237e-45	-1.203706215242022e-35	0.93	1.805559322863034e-35	-2.509015245124237e-45	-8.620910738379216e-35	-4.704403584607944e-46	2.426570649309934e-20	3.032665365346231e-23	7.892679509014175e-39	2.630893169671392e-39	-8.620910738379216e-35	-1.034509288605506e-33	7.01010761351577e-54	-2.509015245124237e-45	2.426570649309934e-20	2.302022747452747e-23	-1.578535901802835e-38	4.209429071474227e-38	-8.620910738379216e-35	-1.284615805503609e-42	-1.724182147675843e-34	4.310455369189608e-35	-8.48785204630964e-22	4.770570019889843e-20	-5.886998667787167e-20	-2.674962909436123e-20	-1.312695219073571e-19	3.15707180360567e-38	9.865849386267719e-40	-0.0001372744328862918	0.0004865617541547905	-68.16016096332987	0.0007451740889586952	0.0004952680942509147	-3.232841526892206e-35	3.448364295351686e-34
0.01666666666666667	0	0	0	0	0.93	0	0	0	0	0	-9.183549615799121e-41	0	0	0	0	0	0	1.057463799064954e-39	0	0	0	0	0	0	0	-8.48785204630964e-22	4.770570019889843e-20	-5.886998667787167e-20	-2.674962909436123e-20	-1.312695219073571e-19	0	0	0.3502642798388334	-0.09319861324755324	-68.05447650200766	-0.3261822711804296	-0.0910016070354292	0	0
0.03333333333333333	0	0	0	0	0.93	0	0	0	0	0	-9.183549615799121e-41	0	0	0	0	0	0	0	0	0	0	0	0	0	0	-8.48785204630964e-22	4.770570019889843e-20	-5.886998667787167e-20	-2.674962909436123e-20	-1.312695219073571e-19	0	0	0.8461987556440675	-0.2518348697079239	-67.75597166162497	-0.7558410574270849	-0.2539709113999854	0	0
0.05	0	0	0	0	0.93	0	0	0	0	0	-9.183549615799121e-41	0	0	0	0	0	0	0	0	0	0	0	0	0	0	-8.48785204630964e-22	4.770570019889843e-20	-5.886998667787167e-20	-2.674962909436123e-20	-1.312695219073571e-19	0	0	1.2696053012847	-0.402332711861255	-67.4996446597853	-1.113581527643136	-0.3442565549570291	0	0
0.06666666666666667	0	0	0	0	0.93	0	0	0	0	0	-9.183549615799121e-41	0	0	0	0	0	0	0	0	0	0	0	0	0	0	-8.48785204630964e-22	4.770570019889843e-20	-5.886998667787167e-20	-2.674962909436123e-20	-1.312695219073571e-19	0	0	1.564771346289229	-0.533087726875521	-67.32541291895843	-1.384437182596289	-0.3992527403193908	0	0
0.08333333333333333	1.169643366789379e-12	-5.631444078735274e-13	-1.282031371510692e-12	0	0.93	0	1.098159441528909e-37	-6.107414297076291e-29	0	1.561507757149837e-07	2.725345224655028e-09	1.718942803574623e-37	0	0	1.098159441528909e-37	-6.107414297076291e-29	0	1.561507757149837e-07	2.725345224655028e-09	1.718942803574623e-37	0	0	1.169643366789386e-12	-5.631444078735194e-13	-1.282031371510695e-12	-8.48785204630964e-22	4.770570019889843e-20	-5.886998667787167e-20	-2.674962909436123e-20	-1.312695219073571e-19	0	7.531052130916124e-38	1.75146609983785	-0.6324755437181303	-67.14504237188369	-1.558285196043009	-0.4467372887585201	0	7.531052130916124e-38
0.1	2.580020421074526e-28	4.68175708482344e-23	1.758500269143183e-28	5.291552734477712e-24	0.93	2.192478655891e-23	-3.482560500808601e-28	4.818310928563226e-22	1.694940018451261e-29	6.464250019611887e-15	1.128224465151414e-16	3.461171473998606e-23	5.214927888520148e-25	9.244956204973379e-21	1.810792558592441e-23	8.298143840334298e-30	3.737139347882816e-24	6.463952640587018e-15	1.12818353553424e-16	7.55866975928432e-25	5.637474819277229e-21	-3.189282276655758e-20	9.46341510301954e-29	-8.115937788350788e-27	-2.168012740743358e-24	-5.295558915165668e-20	1.557965977169195e-19	-1.627538154961502e-19	-2.251704817246828e-20	-1.207388903586565e-19	1.036497358612998e-21	-7.60966047604441e-23	1.866979327261386	-0.703410668403318	-66.91847470360779	-1.685781189636046	-0.4985026546723772	1.072053597393229e-21	-6.463085611173011e-23
